<svg width="46" height="46" viewBox="0 0 46 46" fill="none" xmlns="http://www.w3.org/2000/svg">
<g clip-path="url(#clip0_9550_4782)">
<path d="M43.8833 25.8768C43.678 27.3348 43.3147 28.7659 42.8 30.1447C41.3694 34.0088 38.8455 37.3686 35.5387 39.8107C32.5709 42.0068 28.4209 41.5795 25.8093 38.9636L16.3766 29.4888L6.33544 19.4005C4.85154 17.9099 2.25717 18.8167 2.0791 20.9283C2.21744 19.2905 2.54954 17.6752 3.06837 16.1163C4.30462 12.3764 6.55661 9.05774 9.57036 6.53474C11.0256 5.32033 12.8802 4.69621 14.77 4.78492C16.6599 4.87363 18.4485 5.66876 19.7846 7.0142L29.2569 16.5436L39.6887 27.0195C41.0787 28.4107 43.4529 27.73 43.8833 25.8768Z" fill="url(#paint0_linear_9550_4782)"/>
<path d="M16.3791 29.4888V39.7262C16.3786 40.0806 16.2874 40.429 16.1142 40.7378C15.9411 41.0466 15.6918 41.3054 15.3903 41.4895C15.0888 41.6737 14.7452 41.7768 14.3926 41.789C14.0399 41.8013 13.6901 41.7223 13.3766 41.5596C9.94747 39.7762 7.07249 37.0801 5.06604 33.7661C3.05959 30.4521 1.99892 26.6477 2 22.769C2 22.4609 2 22.1479 2.02473 21.8399C2.04946 21.5318 2.05194 21.2313 2.08162 20.9282C2.25969 18.8166 4.84663 17.9049 6.33796 19.4004L16.3791 29.4888Z" fill="url(#paint1_linear_9550_4782)"/>
<path d="M44.1182 22.7689C44.1182 23.0944 44.1182 23.4148 44.0959 23.7353C44.0737 24.0558 44.0613 24.3737 44.0316 24.6942C44.0118 24.8755 43.9945 25.0668 43.9772 25.2507C43.9648 25.3798 43.9475 25.4991 43.9302 25.6332C43.9239 25.6877 43.914 25.7416 43.9005 25.7947C43.9005 25.8245 43.8882 25.8469 43.8832 25.8767C43.4529 27.7299 41.0786 28.4106 39.6788 27.0194L29.2568 16.5435V5.56827C29.2568 5.22714 29.3408 4.89132 29.5016 4.59082C29.6623 4.29031 29.8946 4.0345 30.1778 3.84624C30.4611 3.65799 30.7863 3.54317 31.1245 3.51203C31.4627 3.4809 31.8033 3.53443 32.1158 3.66785C32.1398 3.67567 32.1629 3.68565 32.1851 3.69766C32.2379 3.71982 32.2891 3.74555 32.3384 3.77467C32.3716 3.78634 32.4032 3.8022 32.4324 3.82187C32.6154 3.91627 32.7984 4.0057 32.9765 4.10755C33.2758 4.26157 33.5651 4.42553 33.8545 4.60439C34.0721 4.73357 34.2898 4.8702 34.5024 5.00683C34.5188 5.01297 34.5333 5.02324 34.5445 5.03664C34.7671 5.18321 34.9921 5.33227 35.2098 5.49126C35.6451 5.79433 36.0704 6.11976 36.476 6.46258L36.5181 6.49736C36.7234 6.67622 36.9361 6.8526 37.1364 7.03644C37.3367 7.22027 37.542 7.40907 37.7374 7.60532C37.9327 7.80157 38.1257 7.99037 38.3136 8.19159C38.5016 8.39281 38.6376 8.53441 38.7909 8.71079C39.0036 8.94182 39.2114 9.18528 39.4043 9.4337C39.5972 9.68212 39.7456 9.86595 39.9113 10.0846C40.077 10.3032 40.2427 10.5292 40.4059 10.7603C40.8691 11.4266 41.2896 12.122 41.6648 12.842C41.6887 12.8752 41.7086 12.911 41.7241 12.9489C41.8428 13.1749 41.9541 13.4059 42.0654 13.637C42.1594 13.8258 42.2484 14.022 42.3325 14.2158C42.3795 14.3102 42.4191 14.4046 42.4562 14.5015C42.6615 14.9809 42.8494 15.4703 43.0151 15.9697C43.0967 16.2181 43.1808 16.4665 43.2624 16.7149C43.2698 16.7305 43.274 16.7474 43.2748 16.7646C43.3564 17.0354 43.4257 17.3086 43.4974 17.5869C43.5568 17.8353 43.6161 18.0837 43.668 18.3147C43.6928 18.4141 43.7101 18.516 43.7274 18.6153C43.7695 18.8116 43.8041 19.0128 43.8338 19.214C43.8455 19.2458 43.8514 19.2795 43.8511 19.3134C43.8981 19.5817 43.9401 19.8525 43.9698 20.1257C43.9995 20.3443 44.0217 20.563 44.039 20.7816C44.0563 20.9182 44.0687 21.0598 44.0761 21.1964C44.0934 21.4275 44.1033 21.6535 44.1157 21.8771C44.1132 22.1777 44.1182 22.4733 44.1182 22.7689Z" fill="url(#paint2_linear_9550_4782)"/>
</g>
<defs>
<linearGradient id="paint0_linear_9550_4782" x1="2.0791" y1="23.0001" x2="43.8833" y2="23.0001" gradientUnits="userSpaceOnUse">
<stop stop-color="#E0FA56"/>
<stop offset="1" stop-color="#4AB807"/>
</linearGradient>
<linearGradient id="paint1_linear_9550_4782" x1="9.18953" y1="41.7931" x2="9.18953" y2="18.6626" gradientUnits="userSpaceOnUse">
<stop stop-color="#CFF454"/>
<stop offset="1" stop-color="#88DC47"/>
</linearGradient>
<linearGradient id="paint2_linear_9550_4782" x1="36.6887" y1="3.49892" x2="36.6887" y2="27.7572" gradientUnits="userSpaceOnUse">
<stop stop-color="#CFF454"/>
<stop offset="1" stop-color="#88DC47"/>
</linearGradient>
<clipPath id="clip0_9550_4782">
<rect width="46" height="46" fill="white"/>
</clipPath>
</defs>
</svg>
